<svg xmlns="http://www.w3.org/2000/svg" xmlns:xlink="http://www.w3.org/1999/xlink" viewBox="0 0 359.57453 99.301064"><defs><linearGradient id="a"><stop offset="0" stop-color="#c8c8c8"/><stop offset="1" stop-color="#e8e7e7"/></linearGradient><linearGradient xlink:href="#a" id="b" gradientUnits="userSpaceOnUse" x1="605.201" y1="145.049" x2="604.718" y2="-.672" gradientTransform="translate(0 -.002)"/><linearGradient xlink:href="#a" id="c" gradientUnits="userSpaceOnUse" x1="605.201" y1="145.049" x2="604.718" y2="-.672" gradientTransform="translate(0 -.002)"/><linearGradient xlink:href="#a" id="d" gradientUnits="userSpaceOnUse" x1="605.201" y1="145.049" x2="604.718" y2="-.672" gradientTransform="translate(0 -.002)"/><linearGradient xlink:href="#a" id="e" gradientUnits="userSpaceOnUse" x1="605.201" y1="145.049" x2="604.718" y2="-.672" gradientTransform="translate(0 -.002)"/><linearGradient xlink:href="#a" id="f" gradientUnits="userSpaceOnUse" x1="605.201" y1="145.049" x2="604.718" y2="-.672" gradientTransform="matrix(.59418 0 0 .59418 0 13.255)"/></defs><path d="M259.397 22.76V9.552h6.86v2.032h-4.098v3.384h3.486V17h-3.488v5.76zm11.697-4.884c0-1.92-.09-2.89-1.187-2.89-1.1 0-1.192.97-1.192 2.89 0 2.817.24 3.42 1.192 3.42.95 0 1.187-.603 1.187-3.42m-4.955.146c0-2.525.365-4.684 3.767-4.684 3.4 0 3.768 2.16 3.768 4.684 0 2.89-.44 4.92-3.768 4.92-3.33 0-3.768-2.03-3.768-4.92m10.794-4.5v1.19h.033c.478-1.06 1.355-1.374 2.398-1.374v2.304c-2.267-.146-2.307 1.174-2.307 2.088v5.03h-2.577v-9.236zm7.744 3.586c0-.896.033-2.176-1.19-2.176-1.19 0-1.174 1.39-1.174 2.176zm-2.363 1.446c0 1.094.038 2.742 1.174 2.742.912 0 1.096-.88 1.096-1.647h2.616c-.037 1.006-.365 1.83-.987 2.4-.605.563-1.52.892-2.726.892-3.332 0-3.768-2.03-3.768-4.92 0-2.524.363-4.684 3.767-4.684 3.472 0 3.857 2.25 3.768 5.216zm8.47 1.242c-.02.42 0 .826.125 1.116.147.293.427.44.936.44.51 0 .95-.33.95-.95 0-1.96-4.538-1.52-4.538-4.465 0-1.995 1.976-2.6 3.643-2.6 1.753 0 3.343.844 3.2 2.84h-2.525c0-.643-.072-1.027-.257-1.192-.164-.164-.383-.2-.657-.2-.567 0-.88.365-.88.987 0 1.462 4.537 1.39 4.537 4.354 0 1.61-1.316 2.816-3.454 2.816-2.253 0-3.752-.565-3.606-3.146zm5.014-6.274h1.04V12.06l2.58-1.154v2.616h1.335v1.59h-1.337v4.94c0 .694-.02 1.153.824 1.153.164 0 .33 0 .453-.036v1.59c-.346.037-.712.09-1.333.09-2.232 0-2.524-1.48-2.524-2.046v-5.69h-1.04zm8.607 0v1.19h.04c.474-1.06 1.352-1.374 2.396-1.374v2.304c-2.27-.146-2.306 1.174-2.306 2.088v5.03h-2.58v-9.236zm5.364 9.31l-2.505-9.31h2.56l1.317 6.494h.04l1.39-6.494h2.49l-3.57 12.734h-2.707zm-43.763 10.932c0-3.387-.196-4.848-1.753-4.848-1.553 0-1.756 1.462-1.756 4.848 0 3.293.203 4.754 1.756 4.754 1.557 0 1.755-1.462 1.755-4.754m3.772 6.604h-3.897c-.478 0-1.1.125-1.594.125-4.08 0-4.59-2.14-4.59-6.73 0-3.497 0-6.825 4.554-6.825 4.555 0 4.555 3.328 4.555 6.824 0 2.835-.51 4.08-1.61 4.994l.037.037c.404-.11 1.12-.457 1.39-.457h1.156zm5.43-.935h-.037c-.51.823-1.207 1.117-2.175 1.117-1.227 0-2.304-.733-2.304-2.013V31.13h2.575l.002 6.402c0 .822.146 1.426.973 1.426.82 0 .968-.604.968-1.426V31.13h2.578v7.408c0 .6.04 1.224.095 1.83h-2.672zm6.523-1.94c0 .66.112 1.468.95 1.468 1.517 0 1.28-2.05 1.28-3.055-1.28.053-2.23-.053-2.23 1.59m4.755 1.153c0 .566.076 1.152.13 1.72h-2.398l-.11-1.227h-.035c-.55.953-1.298 1.41-2.414 1.41-1.794 0-2.453-1.336-2.453-2.946 0-3.054 2.36-3.183 4.756-3.147v-.713c0-.784-.11-1.354-1.04-1.354-.897 0-.973.676-.973 1.41h-2.52c0-1.118.344-1.832.95-2.25.586-.44 1.426-.605 2.412-.605 3.275 0 3.694 1.41 3.694 3.093zm4.135 1.72h-2.58V27.16h2.58zm4.537 0h-2.58v-9.24h2.58zm0-11.178h-2.58v-2.03h2.58zm.8 1.94h1.044v-1.465l2.58-1.152v2.616h1.335v1.59h-1.335v4.94c0 .693-.018 1.153.826 1.153.164 0 .33 0 .455-.04v1.595c-.347.034-.714.09-1.336.09-2.233 0-2.525-1.484-2.525-2.05V32.72h-1.044zm7.832 9.31l-2.507-9.31h2.56l1.316 6.492h.038l1.39-6.493h2.488L305.51 43.86h-2.705zm-55.368-.044h-1.813V9.183h1.813z" fill="#e30613"/><path d="M0 9.71h12.62v30.72H0z" fill="url(#b)"/><path d="M33.247 9.544H19.15L12.273 24.6l7.313 15.66 14.364.053-7.665-15.802z" fill="url(#c)"/><path d="M48.34 8.31c-9.048 0-16.383 7.336-16.383 16.383 0 9.05 7.334 16.384 16.387 16.384 9.048 0 16.383-7.333 16.383-16.383 0-9.046-7.336-16.382-16.387-16.382m0 20.773c-2.424 0-4.39-1.965-4.39-4.39 0-2.423 1.966-4.387 4.39-4.387 2.428 0 4.395 1.964 4.395 4.386 0 2.427-1.968 4.39-4.392 4.39m43.286-.08l-3.062 11.48h-7.232L78.19 28.917l-1.703 11.57H65.17l4.68-30.894h11.06l4 11.33 3.91-11.328h11.335l4.573 28.085 9.87-28.085h11.996l10.635 30.893h-12.934l-3.657-14.46-3.66 14.458H93.5l-1.87-11.568M133.8 9.576h19.48V0h11.556v12.216H153.61v28.062H141.06V20.91h-7.26z" fill="url(#d)"/><path d="M183.178 20.54l3.187-8.294s-11.81-7.63-20.967-.333c-7.366 7.897-.862 14.333-.862 14.333s1.857 2.323 7.364 3.25c0 0 2.586.068 2.25 1.79-.33 1.726-3.18 1.063-3.18 1.063s-2.39-.265-7.566-3.188l-3.447 8.227s10.943 7.43 21.56 1.988c8.96-6.43 3.05-14.525 3.05-14.525s-1.79-2.7-6.147-3.64c-5.128-1.11-4.247-2.547-4.247-2.547s.127-1.44 3.43-.646c3.677.88 5.578 2.496 5.578 2.496M202.12 9.503h-12.386V28.75s-.024.876.102 2.167c.36 3.613 2.48 10.487 14.038 10.487 11.83-.09 13.72-6.947 13.96-10.504.086-1.247.064-2.09.064-2.09V9.562h-12.36l-.003 19.11s.026 1.81-1.782 1.8c-1.68-.008-1.633-1.724-1.633-1.724V9.5" fill="url(#e)"/><path d="M319.517 53.17v11.824h12.922V99.3h14.213V64.993h12.922V53.17zm-39.672 0V99.3h38.183V87.476h-23.97v-5.75h21.774V70.744h-21.774v-5.75h23.97V53.17zm-39.908 0V99.3h38.184V87.476h-23.968v-5.75h21.772V70.744h-21.772v-5.75h23.97V53.17zm-36.345 0V99.3h34.63V87.476h-20.415V53.17zm-37.578 0V99.3h14.213V81.726h18.414V70.743h-18.415v-5.75h21.452V53.17zM150.07 99.3h14.213V53.17H150.07zm-17.34-46.13l-6.85 12.535-6.976-12.533h-16.67l15.183 21.578-16.185 23.84-16.537-45.42h-13.89L53.81 99.3h14.28l2.068-6.59h14.666l1.938 6.59h30.266l8.14-13.76 7.884 13.76h17.12l-16.475-24.42 14.795-21.708zM79.008 68.61h.13l4.135 14.216h-8.72zM33.533 53.17l-6.588 27.138h-.13L20.223 53.17H0V99.3h13.44V69.71h.13l8.012 29.59h10.596l8.01-29.59h.13V99.3h13.436V53.17z" fill="url(#f)"/></svg>