<svg xmlns="http://www.w3.org/2000/svg" viewBox="0 0 605.15449 77.638966"><path d="M537.74.002V19.9h21.745v57.736h23.923V19.9h21.746V0zm-66.77 0v77.634h64.262V57.738h-40.34v-9.676h36.644V29.576h-36.644V19.9h40.34V0zm-67.163 0v77.634h64.262V57.738h-40.34v-9.676h36.642V29.576H427.73V19.9h40.34V0zm-61.168 0v77.634h58.282V57.738h-34.36V.002zm-63.245 0v77.634h23.92V48.06h30.99V29.576h-30.992V19.9h36.103V0zm-26.832 77.636h23.92V.002h-23.92zM223.38.002l-11.527 21.096L200.11.004h-28.053L197.61 36.32l-27.24 40.12L142.537.003H119.16L90.56 77.64h24.032l3.48-11.094h24.682l3.263 11.093h50.936l13.7-23.16 13.268 23.16h28.814l-27.727-41.102 24.9-36.534zm-90.414 25.986h.22l6.96 23.923h-14.678zM56.433.002L45.345 45.674h-.218L34.033.004H0v77.632h22.62v-49.8l.216.003 13.484 49.8 17.832-.004 13.482-49.8.216.003v49.8l22.614-.004V0z" fill="#1d1d1b"/></svg>