<svg xmlns="http://www.w3.org/2000/svg" viewBox="0 0 643.27198 144.80972" height="144.81" width="643.272"><defs><clipPath id="a"><path d="M0 841.89h595.28V0H0z"/></clipPath></defs><path d="M0 9.713h12.62v30.72H0z" fill="#1d1d1b"/><path d="M33.247 9.546H19.15l-6.877 15.056 7.313 15.66 14.364.053-7.665-15.802z" fill="#1d1d1b"/><g clip-path="url(#a)" transform="matrix(1.33333 0 0 -1.33333 -76.245 633.996)"><path d="M93.44 469.264c-6.787 0-12.288-5.502-12.288-12.287 0-6.787 5.5-12.288 12.29-12.288 6.786 0 12.287 5.5 12.287 12.287 0 6.785-5.502 12.287-12.29 12.287m0-15.58c-1.818 0-3.292 1.474-3.292 3.293 0 1.817 1.474 3.29 3.293 3.29 1.82 0 3.295-1.473 3.295-3.29 0-1.82-1.476-3.293-3.294-3.293M125.906 453.744l-2.296-8.61h-5.424l-2.36 8.675-1.277-8.677h-8.487l3.51 23.17h8.294l3-8.497 2.934 8.496h8.5l3.43-21.064 7.403 21.064h8.997l7.976-23.17h-9.7l-2.743 10.845-2.743-10.844h-17.61l-1.404 8.676M157.535 468.315h14.61v7.182h8.666v-9.162h-8.42v-21.047h-9.41v14.526h-5.445z" fill="#1d1d1b"/><path d="M194.568 460.092l2.39 6.22s-8.858 5.722-15.725.25c-5.525-5.923-.647-10.75-.647-10.75s1.393-1.742 5.523-2.438c0 0 1.94-.05 1.688-1.342-.248-1.294-2.385-.797-2.385-.797s-1.792.198-5.675 2.39l-2.585-6.17s8.207-5.573 16.17-1.492c6.72 4.823 2.287 10.894 2.287 10.894s-1.343 2.026-4.61 2.73c-3.846.833-3.185 1.91-3.185 1.91s.095 1.08 2.573.485c2.757-.66 4.183-1.872 4.183-1.872M208.773 468.37h-9.29v-14.435s-.018-.658.077-1.626c.27-2.71 1.86-7.865 10.528-7.865 8.873.067 10.29 5.21 10.47 7.878.065.935.048 1.568.048 1.568v14.435h-9.27l-.002-14.332s.02-1.358-1.336-1.352c-1.26.007-1.226 1.294-1.226 1.294v14.437" fill="#1d1d1b"/><path d="M251.732 458.427v9.906h5.145v-1.524h-3.073v-2.538h2.615v-1.524h-2.616v-4.32zM260.505 462.09c0 1.44-.068 2.168-.89 2.168-.825 0-.894-.728-.894-2.168 0-2.113.18-2.566.894-2.566.713 0 .89.453.89 2.566m-3.716-.11c0 1.894.274 3.513 2.826 3.513 2.55 0 2.826-1.62 2.826-3.513 0-2.167-.33-3.69-2.826-3.69-2.497 0-2.826 1.523-2.826 3.69M264.885 465.355v-.892h.025c.358.795 1.016 1.03 1.798 1.03v-1.728c-1.7.11-1.73-.88-1.73-1.566v-3.773h-1.933v6.928zM270.693 462.666c0 .672.025 1.632-.893 1.632-.892 0-.88-1.043-.88-1.632zm-1.772-1.085c0-.82.028-2.056.88-2.056.685 0 .823.66.823 1.235h1.962c-.028-.755-.274-1.373-.74-1.8-.454-.423-1.14-.67-2.045-.67-2.498 0-2.825 1.523-2.825 3.69 0 1.893.272 3.513 2.825 3.513 2.605 0 2.894-1.688 2.827-3.912zM275.273 460.65c-.014-.316 0-.62.094-.837.11-.22.32-.33.702-.33.382 0 .712.247.712.713 0 1.47-3.403 1.14-3.403 3.348 0 1.496 1.482 1.95 2.732 1.95 1.314 0 2.507-.633 2.4-2.13h-1.894c0 .482-.054.77-.193.894-.123.123-.287.15-.493.15-.426 0-.66-.274-.66-.74 0-1.097 3.402-1.043 3.402-3.266 0-1.208-.987-2.112-2.59-2.112-1.69 0-2.814.424-2.705 2.36zM279.034 465.355h.78v1.097l1.935.865v-1.962h1.002v-1.193h-1.003v-3.705c0-.52-.015-.864.618-.864.123 0 .247 0 .34.027v-1.193c-.26-.028-.534-.068-1-.068-1.674 0-1.893 1.11-1.893 1.535v4.267h-.78zM285.49 465.355v-.892h.03c.355.795 1.014 1.03 1.797 1.03v-1.728c-1.703.11-1.73-.88-1.73-1.566v-3.773h-1.934v6.928zM289.513 458.372l-1.88 6.983h1.92l.988-4.87h.03l1.042 4.87h1.867l-2.677-9.55h-2.03zM256.69 450.174c0 2.54-.147 3.636-1.315 3.636-1.165 0-1.317-1.097-1.317-3.636 0-2.47.152-3.566 1.317-3.566 1.168 0 1.316 1.097 1.316 3.566m2.83-4.953h-2.923c-.358 0-.824-.094-1.195-.094-3.06 0-3.443 1.605-3.443 5.048 0 2.622 0 5.118 3.415 5.118 3.416 0 3.416-2.496 3.416-5.118 0-2.126-.382-3.06-1.206-3.745l.027-.028c.303.082.84.343 1.043.343h.867zM263.594 445.922h-.028c-.384-.617-.906-.838-1.632-.838-.92 0-1.728.55-1.728 1.51v5.556h1.932v-4.802c0-.617.11-1.07.73-1.07.616 0 .726.453.726 1.07v4.802h1.934v-5.557c0-.45.028-.918.07-1.372h-2.004zM268.486 447.376c0-.495.084-1.1.713-1.1 1.137 0 .96 1.538.96 2.292-.96-.04-1.674.04-1.674-1.192m3.567-.865c0-.425.057-.864.097-1.29h-1.798l-.082.92h-.027c-.412-.714-.973-1.057-1.81-1.057-1.346 0-1.84 1.002-1.84 2.21 0 2.29 1.77 2.387 3.567 2.36v.535c0 .588-.082 1.015-.78 1.015-.673 0-.73-.507-.73-1.057h-1.89c0 .838.258 1.374.712 1.688.44.33 1.07.453 1.81.453 2.456 0 2.77-1.057 2.77-2.32zM275.153 445.22h-1.935v9.907h1.935zM278.556 445.22h-1.935v6.93h1.936zm0 8.384h-1.935v1.523h1.936zM279.157 452.15h.782v1.098l1.934.864v-1.962h1.002v-1.193h-1.002v-3.705c0-.52-.013-.865.62-.865.122 0 .246 0 .34.03v-1.196c-.26-.026-.535-.068-1.002-.068-1.674 0-1.893 1.113-1.893 1.537v4.267h-.783zM285.03 445.167l-1.88 6.983h1.92l.987-4.87h.028l1.042 4.87h1.866l-2.675-9.55h-2.03zM288.9 447.92h2.17v-.444h-.796v-2.235h-.575v2.236h-.8zM292.965 445.242h-.48l-.707 2.302-.007-.008v-2.294h-.54v2.68h.945l.56-1.947h.006l.612 1.947h.91v-2.68h-.54v2.294l-.007.008zM243.504 445.2h-1.36v23.41h1.36z" fill="#e30613"/><path d="M533.688 442.446l-1.94-7.985h-.038l-1.94 7.986h-5.953V428.87h3.954v8.71h.038l2.36-8.71h3.12l2.36 8.71h.036v-8.71h3.954v13.576zm-22.636 0v-3.48h3.804V428.87h4.182v10.097h3.803v3.48zM460.49 425.116v-14.924h16.31V366.89h17.942v43.303h16.31v14.924zm-50.076 0V366.89h48.196v14.924h-30.255v7.257h27.483v13.864h-27.483v7.258h30.255v14.924zm-50.373 0V366.89h48.197v14.924h-30.255v7.257h27.482v13.864h-27.482v7.258h30.255v14.924zm-45.876 0V366.89h43.712v14.924h-25.77v43.302zm-47.433 0V366.89h17.94v22.182h23.243v13.863H284.67v7.258h27.078v14.924zm-20.124-58.227h17.94v58.227h-17.94zm-21.888 58.227l-8.645-15.822-8.807 15.82h-21.04l19.164-27.237-20.43-30.09-20.873 57.328h-17.533l-21.45-58.227h18.023l2.61 8.32h18.512l2.447-8.32H204.9l10.276 17.37 9.95-17.37h21.61l-20.795 30.826 18.674 27.4zm-67.81-19.49h.164l5.22-17.942h-11.008zm-57.4 19.49l-8.316-34.254h-.164l-8.32 34.253H57.185V366.89h16.964v37.35l.163-.002 10.113-37.35 13.374.002 10.112 37.35.162-.002v-37.35l16.96.002v58.227z" fill="#1d1d1b"/></g></svg>